<svg width="1717" height="500" viewBox="0 0 1717 500" fill="none" xmlns="http://www.w3.org/2000/svg">
<path d="M602.723 337V189H651.323C683.923 189 709.123 200.4 709.123 235.6C709.123 269.4 683.923 284.4 652.123 284.4H632.323V337H602.723ZM632.323 261H650.123C670.523 261 680.323 252.4 680.323 235.6C680.323 218.2 669.523 212.6 649.123 212.6H632.323V261ZM774.272 339.8C746.072 339.8 720.472 318.2 720.472 281.2C720.472 244 746.072 222.4 774.272 222.4C802.272 222.4 827.872 244 827.872 281.2C827.872 318.2 802.272 339.8 774.272 339.8ZM774.272 316C789.472 316 797.872 302.2 797.872 281.2C797.872 260 789.472 246.4 774.272 246.4C758.872 246.4 750.472 260 750.472 281.2C750.472 302.2 758.872 316 774.272 316ZM887.022 339.8C860.422 339.8 850.222 323 850.222 298V248.2H834.622V226.4L852.022 225.2L855.222 194.8H879.622V225.2H907.422V248.2H879.622V298C879.622 310.8 885.022 316.8 894.822 316.8C898.622 316.8 902.822 315.4 906.022 314.2L910.822 335.6C904.822 337.6 897.022 339.8 887.022 339.8ZM951.747 339.8C931.747 339.8 918.747 325.8 918.747 306.6C918.747 282.8 938.147 270.2 983.147 265.2C982.547 254.2 977.947 246 964.147 246C953.747 246 943.547 250.4 933.347 256.6L922.747 237C935.947 229 951.747 222.4 969.547 222.4C997.947 222.4 1012.55 239.2 1012.55 271.8V337H988.547L986.347 325.2H985.547C975.747 333.6 964.547 339.8 951.747 339.8ZM961.347 316.8C969.747 316.8 975.947 313 983.147 306V283.4C955.747 286.8 946.747 294.2 946.747 304.4C946.747 313 952.747 316.8 961.347 316.8ZM1078.43 339.8C1051.83 339.8 1041.63 323 1041.63 298V248.2H1026.03V226.4L1043.43 225.2L1046.63 194.8H1071.03V225.2H1098.83V248.2H1071.03V298C1071.03 310.8 1076.43 316.8 1086.23 316.8C1090.03 316.8 1094.23 315.4 1097.43 314.2L1102.23 335.6C1096.23 337.6 1088.43 339.8 1078.43 339.8ZM1163.73 339.8C1135.53 339.8 1109.93 318.2 1109.93 281.2C1109.93 244 1135.53 222.4 1163.73 222.4C1191.73 222.4 1217.33 244 1217.33 281.2C1217.33 318.2 1191.73 339.8 1163.73 339.8ZM1163.73 316C1178.93 316 1187.33 302.2 1187.33 281.2C1187.33 260 1178.93 246.4 1163.73 246.4C1148.33 246.4 1139.93 260 1139.93 281.2C1139.93 302.2 1148.33 316 1163.73 316ZM1289.83 337V189H1322.43L1347.63 258.4C1351.03 267.6 1353.63 277.2 1356.83 286.8H1357.63C1361.03 277.2 1363.63 267.6 1366.63 258.4L1391.23 189H1424.03V337H1397.03V275.2C1397.03 261.2 1399.43 240.6 1401.03 226.6H1400.03L1387.83 261.4L1365.03 323.8H1348.03L1325.23 261.4L1313.23 226.6H1312.43C1314.03 240.6 1316.23 261.2 1316.23 275.2V337H1289.83ZM1485.34 339.8C1465.34 339.8 1452.34 325.8 1452.34 306.6C1452.34 282.8 1471.74 270.2 1516.74 265.2C1516.14 254.2 1511.54 246 1497.74 246C1487.34 246 1477.14 250.4 1466.94 256.6L1456.34 237C1469.54 229 1485.34 222.4 1503.14 222.4C1531.54 222.4 1546.14 239.2 1546.14 271.8V337H1522.14L1519.94 325.2H1519.14C1509.34 333.6 1498.14 339.8 1485.34 339.8ZM1494.94 316.8C1503.34 316.8 1509.54 313 1516.74 306V283.4C1489.34 286.8 1480.34 294.2 1480.34 304.4C1480.34 313 1486.34 316.8 1494.94 316.8ZM1603.7 339.8C1583.1 339.8 1576.1 326.4 1576.1 305.6V177.6H1605.5V306.8C1605.5 313.8 1608.5 316 1611.3 316C1612.3 316 1613.1 316 1615.1 315.6L1618.7 337.4C1615.3 338.6 1610.7 339.8 1603.7 339.8ZM1666.79 339.8C1646.19 339.8 1639.19 326.4 1639.19 305.6V177.6H1668.59V306.8C1668.59 313.8 1671.59 316 1674.39 316C1675.39 316 1676.19 316 1678.19 315.6L1681.79 337.4C1678.39 338.6 1673.79 339.8 1666.79 339.8Z" fill="black"/>
<path d="M500 250C500 388.071 388.071 500 250 500C111.929 500 0 388.071 0 250C0 111.929 111.929 0 250 0C388.071 0 500 111.929 500 250ZM46.4408 250C46.4408 362.423 137.577 453.559 250 453.559C362.423 453.559 453.559 362.423 453.559 250C453.559 137.577 362.423 46.4408 250 46.4408C137.577 46.4408 46.4408 137.577 46.4408 250Z" fill="#B77927"/>
<circle cx="155" cy="201" r="35" fill="#B77927"/>
<circle cx="304" cy="143" r="35" fill="#B77927"/>
<circle cx="285" cy="319" r="35" fill="#B77927"/>
</svg>
